# xmcd CD database file
#
# Track frame offsets:
#	150
#	30055
#	59902
#	82012
#	131480
#	153862
#
# Disc length: 2347 seconds
#
# Revision: 0
# Processed by: cddbd v1.5.2PL0 Copyright (c) Steve Scherf et al.
# Submitted via: CDex 1.70beta2
#
DISCID=43092906
DTITLE=Hampton Hawes - High in the Sky
DYEAR=1970
DGENRE=Jazz
TTITLE0=Look of Love
TTITLE1=Evening Trane
TTITLE2=Muffin Man 
TTITLE3=High in the Sky 
TTITLE4=Carmel
TTITLE5=Spanish Girl
EXTD=YEAR: 1970
EXTT0=
EXTT1=
EXTT2=
EXTT3=
EXTT4=
EXTT5=
PLAYORDER=
